<?xml version="1.0" encoding="utf-8"?>
<!-- Generator: Adobe Illustrator 19.2.1, SVG Export Plug-In . SVG Version: 6.00 Build 0)  -->
<svg version="1.1" id="layer" xmlns="http://www.w3.org/2000/svg" xmlns:xlink="http://www.w3.org/1999/xlink" x="0px" y="0px"
	 viewBox="0 0 652 652" style="enable-background:new 0 0 652 652;" xml:space="preserve">
<style type="text/css">
	.st0{fill:#2A2929;}
	.st1{fill:#0B98D5;}
</style>
<path class="st0" d="M295.6,374.5c0-13.9-9.9-20.4-23.1-20.4c-13.2,0-23.1,6.5-23.1,20.4c0,16.4,12.3,20.8,23.1,20.8
	C283.3,395.3,295.6,390.8,295.6,374.5 M272.5,344.4c25.4,0,34.4,14.9,34.4,30.7c0,12-7.1,29.9-34.4,29.9s-34.4-17.9-34.4-29.9
	C238.1,359.3,247.1,344.4,272.5,344.4 M55.7,371.5H32.4v-16h23.3c6.4,0,12.1,0.6,12.1,7.9C67.8,370.9,62.1,371.5,55.7,371.5
	 M53.3,345.8H21.1v57.7h0v0.1c0,0,1.6,0.8,5.8,0.8c3.7,0,5.6-0.8,5.6-0.8v-22.5h20.8c9.8,0,25.8,0,25.8-17.6
	C79.1,345.8,63,345.8,53.3,345.8 M103.1,380.6l12.1-25.7l12.1,25.7H103.1z M146.4,396.8L122,346.6l-0.3-0.8c0,0-2.4-0.8-6.5-0.8
	c-3.3,0-5.8,0.6-6.4,0.7h-0.1L81,402.2l-0.7,1.4c0,0,2.1,0.9,5.9,0.9c4,0,6.1-0.9,6.1-0.9l0-0.1h0l4-8.6l2.2-4.7h33.2l4.1,8.8
	l2.1,4.5h0l0,0c0,0,2.2,0.9,6.1,0.9c3.8,0,5.8-0.9,5.8-0.9S146.4,396.8,146.4,396.8z M415.6,380.6l12.1-25.7l12.1,25.7
	C439.7,380.6,415.6,380.6,415.6,380.6z M458.9,396.8l-24.4-50.2l-0.3-0.8c0,0-2.4-0.8-6.5-0.8c-3.3,0-5.8,0.6-6.4,0.7h-0.1
	l-27.8,56.4l-0.7,1.4c0,0,2.1,0.9,5.9,0.9c4,0,6.1-0.9,6.1-0.9l0-0.1h0l4-8.6l2.2-4.7h33.2l4.1,8.8l2,4.5h0l0,0c0,0,2.2,0.9,6.1,0.9
	c3.8,0,5.8-0.9,5.8-0.9S458.9,396.8,458.9,396.8z M574.4,380.6l12.1-25.7l12.1,25.7H574.4z M617.7,396.8l-24.4-50.2l-0.3-0.8
	c0,0-2.4-0.8-6.5-0.8c-3.3,0-5.8,0.6-6.4,0.7h-0.1l-27.8,56.4l-0.7,1.4c0,0,2.1,0.9,5.8,0.9c4,0,6.1-0.9,6.1-0.9l0-0.1h0l4-8.6
	l2.2-4.7h33.2l4.1,8.8l2,4.5h0l0,0c0,0,2.2,0.9,6.1,0.9c3.8,0,5.8-0.9,5.8-0.9L617.7,396.8L617.7,396.8z M223.2,397.4v-51.6h0v-0.1
	c0,0-1.5-0.8-5.3-0.8c-3.8,0-5.5,0.8-5.5,0.8v41.8l-38.6-41.6l0,0l0,0h0c-0.1,0-2-0.7-5.9-0.7c-3.8,0-5.9,0.7-6,0.7h0v57.7h0.1
	c0.2,0.1,1.6,0.8,5.2,0.8c3.6,0,5.2-0.7,5.4-0.8h0.1v-43.2l40.2,43.2h0.2l0,0.1c0,0,1.6,0.6,5,0.6c3.3,0,5.1-0.6,5.1-0.6
	L223.2,397.4C223.2,397.4,223.2,397.4,223.2,397.4z M333.1,371.5v-2.9h0v-13.4h21.8c9.2,0,13.9,1.3,13.9,8.1c0,6.8-4.7,8.2-13.9,8.2
	H333.1z M381.6,403.6L381.6,403.6L363.9,380c8.5-0.5,16.1-6.4,16.1-17c0-14.1-9.9-17.2-23.5-17.2h-34.7v57.7h0.2
	c0.5,0.2,2.1,0.8,5.4,0.8c3.5,0,5.1-0.6,5.6-0.8h0.2v-0.1l0,0v-22.6H351l16.8,22.7h0.1l0.1,0.1c0,0,2.4,0.8,6.7,0.8
	c4.7,0,7.1-0.8,7.1-0.8L381.6,403.6z M540.1,345.8L540.1,345.8L540.1,345.8c0-0.1-3-0.9-7.5-0.9c-3.7,0-7.4,0.9-7.4,0.9v0.1
	l-18.3,30.9l-18-30.9h-0.1c-0.3-0.1-3.8-0.9-7.4-0.9c-4.4,0-7.3,0.8-7.6,0.9h0v0h0v11.3h0v15.5h0v31c0,0,1.4,0.8,4.9,0.8
	c3.6,0,5.1-0.8,5.1-0.8v0h0.1v-43.8h0.1l18.6,31.9h0.1v0.1c0,0,1.2,0.7,4.3,0.7c3.1,0,4.5-0.7,4.5-0.7v-0.1h0.1l18.5-31.9h0.2v12.9
	H530v31c0,0,1.4,0.8,4.9,0.8c3.6,0,5.1-0.8,5.1-0.8v-0.1h0.1V345.8z M132.2,458c0,0-0.7,0.3-2,0.3c-1.5,0-2.1-0.3-2.1-0.3v-23h8.7
	c4.4,0,7.2,2.9,7.2,7.3c0,4.3-2.8,7.3-7.2,7.3h-4.5V458z M136.1,446.2c2.3,0,3.5-1.4,3.5-3.8c0-2.4-1.2-3.8-3.5-3.8h-3.9v7.7H136.1z
	 M181.8,450.2c0,5.4-3.3,8.5-8.4,8.5c-5.1,0-8.4-3.1-8.4-8.5v-14.8c0,0,0.7-0.3,2-0.3c1.4,0,2.1,0.3,2.1,0.3v15.5
	c0,2.7,1.6,4.3,4.3,4.3s4.3-1.6,4.3-4.3v-15.5c0,0,0.6-0.3,2-0.3s2.1,0.3,2.1,0.3S181.8,450.2,181.8,450.2z M212.8,435.1
	c4.4,0,7.2,2.8,7.2,7c0,3.2-1.7,5.6-4.5,6.6l5.6,9.4c0,0-0.8,0.3-2.5,0.3c-1.5,0-2.3-0.3-2.3-0.3l-5.3-9h-2.6v9c0,0-0.7,0.3-2,0.3
	c-1.5,0-2.1-0.3-2.1-0.3v-23C204.3,435.1,212.8,435.1,212.8,435.1z M208.5,445.6h3.8c2.3,0,3.5-1.3,3.5-3.6c0-2.3-1.2-3.6-3.5-3.6
	h-3.8C208.5,438.5,208.5,445.6,208.5,445.6z M255.5,435c0.2,0.5,0.3,1,0.3,1.5c0,0.6-0.1,1.2-0.3,1.8h-9.2v6.5h7.6
	c0.2,0.5,0.3,1.1,0.3,1.6c0,0.6-0.1,1.2-0.3,1.7h-7.6v6.7h9.5c0.2,0.5,0.3,1.1,0.3,1.6c0,0.6-0.1,1.2-0.3,1.7h-13.7V435
	C242.2,435,255.5,435,255.5,435z M310.7,434.7c3.6,0,5.6,1.1,5.6,1.1c0.1,1.3-0.5,2.3-1.2,3.1c0,0-1.8-0.7-3.9-0.7
	c-3.4,0-5.9,1.8-5.9,8.5c0,6.7,2.5,8.3,5.9,8.3c2.3,0,4.2-0.7,4.2-0.7c0.8,0.7,1.2,1.9,1.2,3.1c0,0-2.2,1.1-5.9,1.1
	c-6.4,0-9.8-4.2-9.8-11.9C300.9,438.9,304.3,434.7,310.7,434.7 M346.8,435c1.6,0,2.5,0.3,2.5,0.3L357,458c0,0-0.7,0.3-2.3,0.3
	c-1.4,0-2-0.3-2-0.3l-1.7-5.2h-8.8l-1.7,5.2c0,0-0.7,0.3-2,0.3c-1.2,0-1.9-0.3-1.9-0.3l7.7-22.7C344.3,435.3,345.3,435,346.8,435
	 M346.6,439.4c0,0-0.3,1.6-1,3.6l-2.3,6.6h6.6l-2.2-6.6c-0.7-2-1-3.6-1-3.6H346.6z M383.6,445c-1.2-2.3-2.1-4.7-2.1-4.7h-0.1
	c0,0,0.3,2.5,0.3,5.9V458c0,0-0.6,0.3-1.9,0.3c-1.3,0-1.9-0.3-1.9-0.3v-22.7c0,0,0.9-0.3,2.5-0.3c1.6,0,2.5,0.3,2.5,0.3l6.7,12.9
	c1.3,2.3,2.2,4.8,2.2,4.8h0.1c0,0-0.3-2.7-0.3-6v-11.8c0,0,0.6-0.3,1.9-0.3c1.4,0,1.9,0.3,1.9,0.3V458c0,0-0.8,0.3-2.4,0.3
	c-1.6,0-2.5-0.3-2.5-0.3S383.6,445,383.6,445z M426.3,435c1.6,0,2.5,0.3,2.5,0.3l7.7,22.7c0,0-0.7,0.3-2.3,0.3c-1.4,0-2-0.3-2-0.3
	l-1.7-5.2h-8.8L420,458c0,0-0.7,0.3-2,0.3c-1.2,0-1.9-0.3-1.9-0.3l7.7-22.7C423.8,435.3,424.9,435,426.3,435 M426.1,439.4
	c0,0-0.3,1.6-1,3.6l-2.3,6.6h6.6l-2.2-6.6c-0.7-2-1-3.6-1-3.6H426.1z M465,435c5.9,0,9.6,3.3,9.6,11.6c0,8.4-3.7,11.6-9.6,11.6h-7.6
	V435C457.4,435,465,435,465,435z M464.7,454.9c3.1,0,5.4-1.4,5.4-8.2c0-6.9-2.3-8.2-5.4-8.2h-3.2v16.4H464.7z M503.9,435
	c1.6,0,2.5,0.3,2.5,0.3l7.7,22.7c0,0-0.7,0.3-2.3,0.3c-1.4,0-2-0.3-2-0.3l-1.7-5.2h-8.8l-1.7,5.2c0,0-0.7,0.3-2,0.3
	c-1.2,0-1.9-0.3-1.9-0.3l7.7-22.7C501.4,435.3,502.4,435,503.9,435 M503.7,439.4c0,0-0.3,1.6-1,3.6l-2.3,6.6h6.6l-2.2-6.6
	c-0.7-2-1-3.6-1-3.6H503.7z"/>
<path class="st1" d="M479.9,199.8c0-10.5,8.5-15.9,17.4-15.9c8.7,0,17.6,5.3,17.6,15.9c0,10.5-8.1,16.3-17.7,16.3
	C487.4,216.1,479.9,210.1,479.9,199.8 M497.2,192.3c-5.2,0-7.8,3.8-7.8,7.5c0,3.8,2.5,7.5,7.8,7.5c5.4,0,8.1-3.8,8.1-7.5
	C505.2,196,502.6,192.3,497.2,192.3 M401.9,260.6c-0.1,0.2-0.3,0.3-0.4,0.3c-0.2,0-0.3-0.1-0.4-0.3l-28.5-42c0,0-4.1-1.6-11.2-1.6
	c-0.3,0-0.6,0-0.8,0c-0.3,0-0.6,0-0.8,0c-7.1,0-11.2,1.6-11.2,1.6l-28.5,42c-0.1,0.2-0.3,0.3-0.4,0.3c-0.2,0-0.3-0.1-0.4-0.3
	l-28.6-42c0,0-4.1-1.6-11.3-1.6c-0.3,0-0.5,0-0.8,0c-0.3,0-0.5,0-0.8,0c-7.1,0-11.3,1.6-11.3,1.6l-28.6,41.9
	c-0.1,0.2-0.3,0.3-0.4,0.3c-0.2,0-0.3-0.1-0.4-0.3l-28.5-41.9c0,0-4.1-1.6-11.3-1.6c-7.1,0-11.2,1.6-11.2,1.6L146,276.9
	c0,0,4.1,1.6,10.6,1.6c6.7,0,12.2-1.6,12.2-1.6l27.8-41c0.1-0.2,0.3-0.3,0.4-0.3c0.2,0,0.3,0.1,0.4,0.3l27.8,41c0,0,3.1,0.9,7.4,1.4
	c1.3,0.2,2.8,0.3,4.4,0.3c0.1,0,0.1,0,0.2,0c0.1,0,0.1,0,0.2,0c0.2,0,0.4,0,0.6,0c0.2,0,0.4,0,0.7,0c6.7,0,12.2-1.6,12.2-1.6
	l26.9-39.8c0.1-0.2,0.3-0.2,0.4-0.2s0.3,0.1,0.4,0.2l27,39.8c0,0,5.5,1.6,12.2,1.6c0.2,0,0.4,0,0.6,0c0.2,0,0.4,0,0.6,0
	c0.1,0,0.1,0,0.2,0c0.1,0,0.1,0,0.2,0c0.2,0,0.4,0,0.6,0c0.2,0,0.4,0,0.7,0c6.7,0,12.2-1.6,12.2-1.6l27-39.8
	c0.1-0.2,0.3-0.3,0.4-0.3c0.2,0,0.3,0.1,0.4,0.3l27,39.8c0,0,5.5,1.6,12.2,1.6c0.2,0,0.4,0,0.6,0c0.2,0,0.4,0,0.7,0
	c0.1,0,0.1,0,0.2,0c0.1,0,0.1,0,0.2,0c1.7,0,3.1-0.1,4.4-0.3c4.3-0.5,7.3-1.4,7.3-1.4l27.8-40.9c0.1-0.2,0.3-0.3,0.4-0.3
	c0.2,0,0.3,0.1,0.4,0.3l27.8,40.9c0,0,5.5,1.6,12.2,1.6c6.4,0,10.6-1.6,10.6-1.6L453,218.6c0,0-4.1-1.6-11.2-1.6
	c-7.1,0-11.2,1.6-11.2,1.6L401.9,260.6z"/>
</svg>
